<?xml version="1.0" encoding="UTF-8"?>
<svg id="Layer_1" data-name="Layer 1" xmlns="http://www.w3.org/2000/svg" viewBox="0 0 311.18 128">
  <defs>
    <style>
      .cls-1 {
        fill: #4a00ff;
      }

      .cls-2 {
        isolation: isolate;
      }

      .cls-3 {
        fill: #fdfdff;
      }
    </style>
  </defs>
  <g class="cls-2">
    <path class="cls-3" d="M7.51,104.34c-4.21,0-7.64-3.43-7.64-7.64V36.31c0-4.21,3.43-7.64,7.64-7.64h14.54c.07-5.78,4.79-10.45,10.58-10.45s10.51,4.68,10.58,10.45h14.58c2.06,0,3.99,.8,5.44,2.26,1.44,1.45,2.22,3.37,2.2,5.41v60.36c0,4.21-3.43,7.64-7.64,7.64H7.51ZM49.13,45.26l.04-6.07H16.2v6.07H49.13Zm-16.46-20.91c-1.09,0-2.11,.42-2.86,1.19-.73,.75-1.13,1.74-1.11,2.79,0,2.19,1.78,3.98,3.98,3.98s3.98-1.78,3.98-3.98-1.78-3.98-3.98-3.98Z"/>
    <path d="M32.63,18.34c5.77,0,10.45,4.68,10.45,10.45h14.7c4.17,0,7.55,3.38,7.51,7.55v60.36c0,4.14-3.38,7.51-7.51,7.51H7.51C3.38,104.22,0,100.84,0,96.7V36.31C0,32.17,3.38,28.79,7.51,28.79h14.66c0-5.77,4.68-10.45,10.45-10.45m.04,14.08c2.25,0,4.1-1.81,4.1-4.1s-1.81-4.1-4.1-4.1-4.14,1.81-4.1,4.1c0,2.25,1.85,4.1,4.1,4.1m-16.59,12.96H49.25l.04-6.32H16.08v6.32m16.55-27.29c-5.82,0-10.57,4.67-10.7,10.45H7.51c-4.28,0-7.76,3.48-7.76,7.76v60.4c0,4.28,3.48,7.76,7.76,7.76H57.78c4.28,0,7.76-3.48,7.76-7.76V36.34c.02-2.07-.78-4.03-2.24-5.5-1.47-1.48-3.43-2.3-5.53-2.3h-14.45c-.13-5.79-4.88-10.45-10.7-10.45h0Zm.04,14.08c-2.12,0-3.85-1.73-3.85-3.85-.02-1.02,.37-1.98,1.08-2.7,.73-.74,1.72-1.15,2.77-1.15,2.12,0,3.85,1.73,3.85,3.85s-1.73,3.85-3.85,3.85h0Zm-16.34,7.14H49.04l-.03,5.82H16.33v-5.82h0Z"/>
  </g>
  <g>
    <g>
      <path class="cls-1" d="M70.13,105.44c-19.24,0-30.72-8.12-30.72-21.72,0-16.01,15.87-21.72,30.72-21.72,9.8,0,17.38,1.45,24.57,4.7l.1,.04-2.38,8.94-.13-.06c-6.26-2.82-13.76-4.37-21.12-4.37-12.45,0-19.58,4.57-19.58,12.53s7.32,12.41,19.58,12.47c9.29,0,15.67-2.07,21.18-4.31l.13-.05,2.38,8.82-.1,.04c-7.96,3.29-15.33,4.69-24.62,4.69Z"/>
      <path d="M70.13,62.12c9.25,0,16.97,1.28,24.52,4.68l-2.31,8.7c-6.08-2.74-13.56-4.38-21.17-4.38-12.53,0-19.71,4.62-19.71,12.65s7.54,12.53,19.71,12.59c8.76,0,15.09-1.82,21.23-4.32l2.31,8.58c-7.36,3.04-14.54,4.68-24.58,4.68-15.57,0-30.6-5.84-30.6-21.59,0-16.79,17.58-21.6,30.6-21.6m0-.25c-14.91,0-30.85,5.74-30.85,21.85,0,7.4,3.22,13.1,9.58,16.92,6.77,4.07,15.3,4.92,21.27,4.92,9.31,0,16.69-1.41,24.67-4.7l.2-.08-.06-.21-2.31-8.58-.07-.27-.26,.11c-5.5,2.23-11.87,4.3-21.14,4.3-12.18-.06-19.46-4.67-19.46-12.34s7.09-12.4,19.46-12.4c7.34,0,14.82,1.55,21.07,4.36l.27,.12,.08-.28,2.31-8.7,.05-.2-.19-.09c-7.21-3.26-14.8-4.71-24.62-4.71h0Z"/>
    </g>
    <g>
      <polygon class="cls-1" points="100.53 104.34 100.53 63.09 112.22 63.09 112.22 94.97 149.39 94.97 149.39 104.34 100.53 104.34"/>
      <path d="M112.1,63.22v31.88h37.17v9.12h-48.61V63.22h11.44m.25-.25h-11.94v41.5h49.11v-9.62h-37.17v-31.88h0Z"/>
    </g>
    <g>
      <rect class="cls-1" x="154.73" y="63.09" width="11.69" height="41.25"/>
      <path d="M166.29,63.22v41h-11.44V63.22h11.44m.25-.25h-11.94v41.5h11.94V62.97h0Z"/>
    </g>
    <g>
      <path class="cls-1" d="M174.31,104.34V63.09h37.42c9.95,0,16.12,5.5,16.12,14.36s-6.46,15.03-16.06,15.03h-25.79v11.86h-11.69Zm34.74-20.75c4.04,0,6.75-2.42,6.75-6.02s-2.75-5.65-7.17-5.65h-22.63v11.67h23.05Z"/>
      <path d="M211.73,63.22c9.12,0,16,4.68,16,14.23s-6.87,14.9-15.94,14.9h-25.91v11.86h-11.44V63.22h37.29m-25.85,20.5h23.18c3.95,0,6.87-2.37,6.87-6.14s-3.16-5.78-7.3-5.78h-22.75v11.92m25.85-20.75h-37.54v41.5h11.94v-11.86h25.66c9.68,0,16.19-6.09,16.19-15.15s-6.23-14.48-16.25-14.48h0Zm-25.6,9.08h22.5c4.35,0,7.05,2.12,7.05,5.53s-2.66,5.89-6.62,5.89h-22.93v-11.42h0Z"/>
    </g>
    <g>
      <rect class="cls-1" x="233.8" y="63.09" width="11.69" height="41.25"/>
      <path d="M245.37,63.22v41h-11.44V63.22h11.44m.25-.25h-11.94v41.5h11.94V62.97h0Z"/>
    </g>
    <g>
      <path class="cls-1" d="M281.38,105.44c-14.47,0-29.93-5.71-29.93-21.72s15.46-21.72,29.93-21.72,29.93,5.71,29.93,21.72-15.46,21.72-29.93,21.72Zm0-34.73c-11.04,0-17.64,4.87-17.64,13.02s6.59,13.01,17.64,13.01,17.52-4.87,17.52-13.01-6.71-13.02-17.52-13.02Z"/>
      <path d="M281.38,62.12c14.72,0,29.81,6.02,29.81,21.6s-14.9,21.59-29.81,21.59-29.81-5.96-29.81-21.59,15.03-21.6,29.81-21.6m0,34.73c10.71,0,17.64-4.74,17.64-13.14s-6.94-13.14-17.64-13.14-17.76,4.81-17.76,13.14,6.94,13.14,17.76,13.14m0-34.98c-14.53,0-30.06,5.74-30.06,21.85s15.53,21.84,30.06,21.84,30.06-5.74,30.06-21.84c0-7.2-3.29-13.03-9.5-16.85-5.24-3.22-12.54-5-20.56-5h0Zm0,34.73c-10.97,0-17.51-4.82-17.51-12.89s6.55-12.89,17.51-12.89,17.39,4.94,17.39,12.89-6.5,12.89-17.39,12.89h0Z"/>
    </g>
  </g>
</svg>