<svg xmlns="http://www.w3.org/2000/svg" viewBox="0 0 311.18 128"><path d="M107.3,90.75c-2.31-3.49-3.7-5.47-4.23-6.07a1.82,1.82,0,0,0-1.33-.69c-.23,0-.43,0-2.68,1.94a24,24,0,0,1-4.89,3.3A17.43,17.43,0,0,1,86.46,91c-.27,0-.53,0-.79,0V57c.27,0,.52,0,.79,0a16.81,16.81,0,0,1,7.65,1.87,25,25,0,0,1,5,3.53c2.31,2,2.5,2,2.74,2a1.8,1.8,0,0,0,1.31-.53c.36-.3,1.25-1.36,4.28-6.69s3.41-6.53,3.41-7A3.44,3.44,0,0,0,109.75,48c-5.83-6.3-13.93-9.57-24.08-9.72V25.5A13.1,13.1,0,0,0,72.59,12.42H58.88a16.56,16.56,0,0,0-32.05-.05H13.08A13.1,13.1,0,0,0,0,25.46V97A13.1,13.1,0,0,0,13.08,110H72.59a13,13,0,0,0,5-1,37.85,37.85,0,0,0,8.3.88c9.88,0,17.91-3.6,23.88-10.7a4.05,4.05,0,0,0,1.13-2.34C110.89,96.61,110.89,96.2,107.3,90.75ZM50.62,23.17H35.23V9.57H50.62Z" style="fill:#0d1117"/><polygon points="23.11 36.2 62.38 36.2 62.42 28.72 23.11 28.72 23.11 36.2" style="fill:#1f1fa4"/><path d="M114.77,53.59H131v54.15H114.77Z" style="fill:#1f1fa4"/><path d="M131,53.59v54.15H114.77V53.59H131m.5-.5H114.27v55.15h17.25V53.09Z" style="fill:#0d1117"/><path d="M137.16,55.2c0-4.54,3.59-8.13,9.37-8.13s9.3,3.59,9.3,8.13-3.59,8-9.3,8S137.16,59.66,137.16,55.2Zm1.18,11.27h16.24v41.27H138.34Z" style="fill:#1f1fa4"/><path d="M146.53,47.07c5.71,0,9.3,3.59,9.3,8.13s-3.59,8-9.3,8-9.37-3.51-9.37-8,3.59-8.13,9.37-8.13m8.05,19.4v41.27H138.34V66.47h16.24m-8.05-19.9c-5.81,0-9.87,3.55-9.87,8.63s4.06,8.47,9.87,8.47,9.8-3.48,9.8-8.47-4-8.63-9.8-8.63ZM155.08,66H137.84v42.27h17.24V66Z" style="fill:#0d1117"/><path d="M189.49,66c9.52,0,17,7.84,17,21.16s-7.53,21.14-17,21.14c-5.49,0-9.37-2.41-11.34-6.14V127.5H161.9v-61h16.25V72.1C180.12,68.37,184,66,189.49,66Zm-5.41,14.2c-3.37,0-6,2.42-6,7s2.64,7,6,7,6-2.42,6-7S187.44,80.15,184.08,80.15Z" style="fill:#1f1fa4"/><path d="M189.49,66c9.52,0,17,7.83,17,21.15s-7.53,21.14-17,21.14c-5.49,0-9.37-2.41-11.34-6.14V127.5H161.9v-61h16.25V72.1c2-3.73,5.85-6.14,11.34-6.14m-5.41,28.1c3.36,0,6-2.42,6-7s-2.64-7-6-7-6,2.42-6,7,2.64,7,6,7m5.41-28.6c-4.71,0-8.5,1.73-10.84,4.91V66H161.4v62h17.25V103.84c2.34,3.18,6.12,4.91,10.84,4.91A16.08,16.08,0,0,0,202,103c3.33-3.92,5.08-9.41,5.08-15.89s-1.75-12-5.08-15.9a16.08,16.08,0,0,0-12.47-5.75Zm-5.41,28.1c-3.35,0-5.51-2.53-5.51-6.45s2.16-6.46,5.51-6.46,5.5,2.53,5.5,6.46-2.16,6.45-5.5,6.45Z" style="fill:#0d1117"/><path d="M226.52,66c5.49,0,9.37,2.42,11.35,6.15V53.59h16.24v54.15H237.87v-5.63c-2,3.73-5.86,6.14-11.35,6.14-9.51,0-17.05-7.83-17.05-21.14S217,66,226.52,66Zm5.42,14.2c-3.37,0-6,2.42-6,7s2.63,7,6,7,6-2.42,6-7S235.3,80.15,231.94,80.15Z" style="fill:#1f1fa4"/><path d="M254.11,53.59v54.15H237.87v-5.63c-2,3.73-5.86,6.14-11.35,6.14-9.51,0-17.05-7.83-17.05-21.14S217,66,226.52,66c5.49,0,9.37,2.41,11.35,6.14V53.59h16.24M231.94,94.06c3.36,0,6-2.42,6-7s-2.64-7-6-7-6,2.42-6,7,2.63,7,6,7m22.67-41H237.37V70.37c-2.35-3.19-6.13-4.91-10.85-4.91a16.11,16.11,0,0,0-12.47,5.75c-3.32,3.92-5.08,9.41-5.08,15.9s1.76,12,5.08,15.89a16.11,16.11,0,0,0,12.47,5.75c4.72,0,8.5-1.72,10.85-4.91v4.4h17.24V53.09ZM231.94,93.56c-3.34,0-5.5-2.54-5.5-6.45s2.16-6.46,5.5-6.46,5.5,2.54,5.5,6.46-2.16,6.45-5.5,6.45Z" style="fill:#0d1117"/><path d="M260.26,55.2c0-4.54,3.59-8.13,9.37-8.13s9.29,3.59,9.29,8.13-3.58,8-9.29,8S260.26,59.66,260.26,55.2Zm1.17,11.27h16.25v41.27H261.43Z" style="fill:#1f1fa4"/><path d="M269.63,47.07c5.71,0,9.29,3.59,9.29,8.13s-3.58,8-9.29,8-9.37-3.51-9.37-8,3.59-8.13,9.37-8.13m8.05,19.4v41.27H261.43V66.47h16.25m-8.05-19.9c-5.81,0-9.87,3.55-9.87,8.63s4.06,8.47,9.87,8.47,9.79-3.48,9.79-8.47-4-8.63-9.79-8.63ZM278.18,66H260.93v42.27h17.25V66Z" style="fill:#0d1117"/><path d="M287.56,80h-5.12V66.47h5.12v-10H303.8v10h6.74V80H303.8V91.13c0,1.9.88,2.78,3,2.78h3.88v13.83h-6.14c-9.66,0-17-4.1-17-16.9Z" style="fill:#1f1fa4"/><path d="M303.8,56.51v10h6.74V80H303.8V91.13c0,1.9.88,2.78,3,2.78h3.88v13.83h-6.14c-9.66,0-17-4.1-17-16.9V80h-5.12V66.47h5.12v-10H303.8m.5-.5H287.06V66h-5.12V80.51h5.12V90.84c0,11.55,5.88,17.4,17.48,17.4h6.64V93.41H306.8c-1.82,0-2.5-.62-2.5-2.28V80.51H311V66H304.3V56Z" style="fill:#0d1117"/><path d="M72.5,16.56H55.1a12.38,12.38,0,0,0-24.75,0H13A8.92,8.92,0,0,0,4.1,25.45V96.94a8.92,8.92,0,0,0,8.89,8.9H72.5a8.92,8.92,0,0,0,8.89-8.9V25.5A8.87,8.87,0,0,0,72.5,16.56ZM42.77,11.15A4.86,4.86,0,1,1,37.91,16,4.85,4.85,0,0,1,42.77,11.15Zm19.63,25H23.13V28.72H62.44Z" style="fill:#fdfdff;isolation:isolate"/><path d="M42.77,11.15A4.8,4.8,0,0,0,37.91,16a4.86,4.86,0,1,0,4.86-4.86Zm0,6A1.16,1.16,0,1,1,43.93,16,1.15,1.15,0,0,1,42.77,17.17Z" style="fill:#1f1fa4"/><path d="M106.88,91c-2.27-3.43-3.67-5.43-4.18-6a1.35,1.35,0,0,0-1-.53,12.21,12.21,0,0,0-2.36,1.83,24.29,24.29,0,0,1-5,3.36,17.87,17.87,0,0,1-7.93,1.83c-.44,0-.86,0-1.29-.06V56.53c.43,0,.85-.06,1.29-.06a17.26,17.26,0,0,1,7.88,1.92A25.19,25.19,0,0,1,99.43,62a12.28,12.28,0,0,0,2.41,1.92,1.3,1.3,0,0,0,1-.38q.86-.72,4.2-6.58t3.34-6.78a3,3,0,0,0-1-1.87q-8.79-9.51-24.21-9.56V25.5A12.57,12.57,0,0,0,72.59,12.91H58.5a16.07,16.07,0,0,0-31.28,0H13.08A12.57,12.57,0,0,0,.5,25.46V97a12.6,12.6,0,0,0,12.58,12.58H72.59a12.71,12.71,0,0,0,4.94-1,37.91,37.91,0,0,0,8.35.89q14.66,0,23.5-10.52a3.68,3.68,0,0,0,1-2C110.39,96.53,109.22,94.57,106.88,91Zm-25.44-.33a13.6,13.6,0,0,1-6.28-4.57,19.26,19.26,0,0,1-3.89-12.26,18.91,18.91,0,0,1,3.89-12.11,13.57,13.57,0,0,1,6.28-4.49ZM13,105.84A8.91,8.91,0,0,1,4.15,97V25.46A8.91,8.91,0,0,1,13,16.56H30.4a12.37,12.37,0,1,1,24.74,0h17.4a8.88,8.88,0,0,1,8.9,8.94V38.9A29.63,29.63,0,0,0,61.37,49.4q-8.9,10.18-8.89,24.8,0,15.09,9.08,25a30.9,30.9,0,0,0,8.58,6.65Z" style="fill:#1f1fa4"/></svg>