<?xml version="1.0" encoding="UTF-8"?>
<svg id="Layer_2" data-name="Layer 2" xmlns="http://www.w3.org/2000/svg" viewBox="0 0 10.46 15.95">
  <defs>
    <style>
      .cls-1 {
        fill: #555;
      }
    </style>
  </defs>
  <g id="Layer_1-2" data-name="Layer 1">
    <path class="cls-1" d="m6.85,14.89h-3.21c-.12,0-.22.08-.24.19-.03.11.03.23.13.28l.63.32c.35.18.72.27,1.1.27s.78-.09,1.13-.28l.58-.31c.1-.05.15-.17.12-.28-.03-.11-.13-.19-.24-.19Z"/>
    <rect class="cls-1" x="2.72" y="13.15" width="5.04" height="1.08" rx=".54" ry=".54"/>
    <path class="cls-1" d="m10.06,3.25c-.67-1.57-2.29-3.25-4.81-3.25h-.03C2.69,0,1.07,1.68.4,3.25c-.48,1.12-.53,2.31-.16,3.56.43,1.44,1.32,2.44,1.35,2.48,0,0,.34.4.52,1,.06.19.05.5.05.77,0,.54-.01,1.29.66,1.4.15.03.3.04.46.04h3.88c.16,0,.31,0,.46-.04.68-.12.67-.86.66-1.41,0-.27,0-.58.05-.77.18-.6.52-.99.52-.99.04-.04.92-1.04,1.35-2.48.38-1.24.32-2.44-.15-3.56Zm-.8,3.27c-.37,1.22-1.13,2.1-1.14,2.11-.02.02-.49.55-.73,1.37-.1.34-.1.72-.09,1.06,0,.13,0,.31,0,.43H3.18s0,0,0,0c0-.12,0-.3,0-.43,0-.34,0-.73-.09-1.06-.25-.82-.71-1.35-.73-1.37,0,0-.77-.88-1.14-2.11-.31-1.03-.27-1.97.12-2.88.54-1.28,1.85-2.64,3.89-2.64h.03c2.04,0,3.35,1.36,3.89,2.64.39.91.43,1.85.12,2.88Z"/>
  </g>
</svg>