<?xml version="1.0" encoding="UTF-8"?>
<svg id="Layer_2" data-name="Layer 2" xmlns="http://www.w3.org/2000/svg" viewBox="0 0 15.9 16">
  <defs>
    <style>
      .cls-1 {
        fill: #DFE1E5;
      }
    </style>
  </defs>
  <g id="Layer_1-2" data-name="Layer 1">
    <path class="cls-1" d="m10.2,6.16h5.56c.07,0,.13-.06.13-.13V.46c0-.12-.15-.18-.23-.1l-2,2c-.05.05-.13.05-.18,0C11.54.36,8.38-.47,5.82.26,3.44.94,1.53,2.68.59,5.03c-.94,2.35-.76,4.93.5,7.06,1.27,2.15,3.45,3.55,5.98,3.85.34.04.67.06,1,.06,2.11,0,4.11-.81,5.61-2.29.05-.05.05-.15,0-.2l-1.21-1.18c-.05-.05-.13-.05-.18,0-1.3,1.28-3.11,1.88-4.98,1.66-1.92-.23-3.57-1.29-4.53-2.91-.95-1.6-1.08-3.55-.37-5.33.71-1.79,2.15-3.1,3.94-3.61,1.89-.54,4.18.1,5.74,1.6.06.05.06.15,0,.2l-1.99,1.99c-.08.08-.02.23.1.23Z"/>
  </g>
</svg>