<?xml version="1.0" encoding="utf-8"?>
<!-- Generator: Adobe Illustrator 27.6.1, SVG Export Plug-In . SVG Version: 6.00 Build 0)  -->
<svg version="1.1" id="Layer_1" xmlns="http://www.w3.org/2000/svg" xmlns:xlink="http://www.w3.org/1999/xlink" x="0px" y="0px"
	 viewBox="0 0 16 16" style="enable-background:new 0 0 16 16;" xml:space="preserve">
<style type="text/css">
	.st0{fill:#DFE1E5;}
</style>
<path class="st0" d="M14.1,9.4c-0.8-1.3-0.3-3.1,1-3.9L13.7,3c-0.4,0.2-0.9,0.4-1.4,0.4c-1.6,0-2.8-1.3-2.8-2.8H6.5
	c0,0.5-0.1,1-0.4,1.4C5.4,3.4,3.7,3.8,2.3,3L0.9,5.6c0.4,0.2,0.8,0.6,1,1c0.8,1.3,0.3,3.1-1,3.8L2.3,13c0.4-0.2,0.9-0.4,1.4-0.4
	c1.5,0,2.8,1.3,2.8,2.8h2.9c0-0.5,0.1-1,0.4-1.4c0.8-1.3,2.5-1.8,3.9-1l1.5-2.5C14.7,10.2,14.4,9.9,14.1,9.4z M8.5,10.4
	c-1.7,0.3-3.2-1.1-2.9-2.9c0.2-1,1-1.7,1.9-1.9c1.7-0.3,3.2,1.1,2.9,2.9C10.2,9.4,9.4,10.2,8.5,10.4z"/>
</svg>
