<svg xmlns="http://www.w3.org/2000/svg" viewBox="0 0 160.03 206.02"><path d="M127.38,98.62a73.43,73.43,0,0,0-7.5-28.18,73.18,73.18,0,0,0,9.3-7.17,63,63,0,0,1,13.93,35.35Zm-16.53,50.95c1.35-1.63,2.61-3.32,3.81-5.06a64,64,0,0,1,7.39,5.72,63.15,63.15,0,0,1-28.26,14.52A73.76,73.76,0,0,0,110.85,149.57Zm-65.66-4.94q1.5,2.19,3.17,4.27a73.43,73.43,0,0,0,17.48,15.76A63.11,63.11,0,0,1,38,150.23,64.2,64.2,0,0,1,45.19,144.63ZM49,56.33c-1.34,1.63-2.62,3.32-3.81,5.06A62.19,62.19,0,0,1,38,55.79,63.16,63.16,0,0,1,65.83,41.37,73.67,73.67,0,0,0,49,56.33Zm61.75,0a73.64,73.64,0,0,0-17-15.06,63.15,63.15,0,0,1,28.26,14.52,62.21,62.21,0,0,1-7.4,5.72C113.44,59.73,112.13,58,110.75,56.33ZM85.18,71.63V48.13a63.46,63.46,0,0,1,20.31,18.38A62.4,62.4,0,0,1,85.18,71.63Zm0,27V82a73,73,0,0,0,25.63-6.53A62.79,62.79,0,0,1,117,98.62Zm0,25.41V109H116.9a62.91,62.91,0,0,1-6.1,21.61A72.92,72.92,0,0,0,85.18,124Zm0,33.86v-23.5a62.58,62.58,0,0,1,20.3,5.11A63.57,63.57,0,0,1,85.18,157.89Zm-10.33-23.5V158.1a62.44,62.44,0,0,1-20.63-18.45A62.24,62.24,0,0,1,74.85,134.39Zm0-25.44V124a72.88,72.88,0,0,0-25.93,6.68A63.25,63.25,0,0,1,42.85,109Zm0-27V98.62H42.73A62.64,62.64,0,0,1,49,75.35,72.62,72.62,0,0,0,74.85,82Zm0-34V71.63a62.41,62.41,0,0,1-20.52-5.21A63.41,63.41,0,0,1,74.85,48Zm-44,15.3a73.35,73.35,0,0,0,9.09,7,73.65,73.65,0,0,0-7.56,28.32H16.92A63,63,0,0,1,30.85,63.27ZM17.05,109H32.49a73.74,73.74,0,0,0,7.45,26.77,74.33,74.33,0,0,0-9.09,7A62.94,62.94,0,0,1,17.05,109Zm112.13,33.8a74.11,74.11,0,0,0-9.3-7.17A73.6,73.6,0,0,0,127.27,109H143A63,63,0,0,1,129.18,142.75ZM80,29.43A73.58,73.58,0,1,0,153.59,103,73.66,73.66,0,0,0,80,29.43Z" style="fill:#2b2b2b;isolation:isolate;opacity:0.7099999785423279"/><path d="M80,29.43A73.58,73.58,0,1,1,6.44,103,73.66,73.66,0,0,1,80,29.43m34.64,32.08a62.21,62.21,0,0,0,7.4-5.72A63.15,63.15,0,0,0,93.79,41.27a73.64,73.64,0,0,1,17,15.06c1.38,1.67,2.69,3.4,3.9,5.18m-69.46-.12C46.38,59.65,47.66,58,49,56.33a73.67,73.67,0,0,1,16.83-15A63.16,63.16,0,0,0,38,55.79a62.19,62.19,0,0,0,7.21,5.6M74.85,71.63V48A63.41,63.41,0,0,0,54.33,66.42a62.41,62.41,0,0,0,20.52,5.21m10.33,0a62.4,62.4,0,0,0,20.31-5.12A63.46,63.46,0,0,0,85.18,48.13v23.5m42.2,27h15.73a63,63,0,0,0-13.93-35.35,73.18,73.18,0,0,1-9.3,7.17,73.43,73.43,0,0,1,7.5,28.18m-110.46,0H32.38A73.65,73.65,0,0,1,39.94,70.3a73.35,73.35,0,0,1-9.09-7A63,63,0,0,0,16.92,98.62m25.81,0H74.85V82A72.62,72.62,0,0,1,49,75.35a62.64,62.64,0,0,0-6.27,23.27m42.45,0H117a62.79,62.79,0,0,0-6.22-23.16A73,73,0,0,1,85.18,82V98.62m44,44.13A63,63,0,0,0,143,109H127.27a73.6,73.6,0,0,1-7.39,26.63,74.11,74.11,0,0,1,9.3,7.17M110.8,130.56A62.91,62.91,0,0,0,116.9,109H85.18V124a72.92,72.92,0,0,1,25.62,6.53m-61.88.15A72.88,72.88,0,0,1,74.85,124V109h-32a63.25,63.25,0,0,0,6.07,21.76m-18.07,12a74.33,74.33,0,0,1,9.09-7A73.74,73.74,0,0,1,32.49,109H17.05a62.94,62.94,0,0,0,13.8,33.8m54.33,15.14a63.57,63.57,0,0,0,20.3-18.39,62.58,62.58,0,0,0-20.3-5.11v23.5m-10.33.21V134.39a62.24,62.24,0,0,0-20.63,5.26A62.44,62.44,0,0,0,74.85,158.1m18.94,6.65a63.15,63.15,0,0,0,28.26-14.52,64,64,0,0,0-7.39-5.72c-1.2,1.74-2.46,3.43-3.81,5.06a73.76,73.76,0,0,1-17.06,15.18m-27.95-.09A73.43,73.43,0,0,1,48.36,148.9q-1.66-2.09-3.17-4.27a64.2,64.2,0,0,0-7.21,5.6,63.11,63.11,0,0,0,27.86,14.43M80,23a80,80,0,1,0,80,80A80.11,80.11,0,0,0,80,23ZM65.17,63.46c1-1.07,2.13-2.09,3.25-3.07v3.84c-1.09-.22-2.18-.48-3.25-.77Zm26.44.77v-3.6c1,.93,2,1.89,3,2.89-1,.26-2,.5-3,.71Zm36.33,8.41,0,0a56,56,0,0,1,7.8,19.58h-2.58a79.14,79.14,0,0,0-5.27-19.55ZM24.24,92.19a56.11,56.11,0,0,1,7.2-18.62,79.51,79.51,0,0,0-4.89,18.62Zm25.82,0a55.47,55.47,0,0,1,2.35-8.45,78.26,78.26,0,0,0,16,4v4.42Zm41.55-4.42a78.47,78.47,0,0,0,15.77-3.94,56,56,0,0,1,2.32,8.36H91.61V87.77ZM133,115.39h2.49a56.44,56.44,0,0,1-7.48,18l0,0a79.43,79.43,0,0,0,5-18Zm-41.37,0h17.76a55.22,55.22,0,0,1-2,6.8,78.55,78.55,0,0,0-15.76-3.94v-2.86Zm-41.25,0H68.42v2.86a78.87,78.87,0,0,0-16.07,4.06,55.24,55.24,0,0,1-2-6.92Zm-25.8,0h2.22a79.41,79.41,0,0,0,4.67,17.06,56.23,56.23,0,0,1-6.89-17.06Zm67.05,30v-3.59c1,.21,2,.45,3,.71-1,1-2,1.95-3,2.88ZM65.05,142.6c1.11-.31,2.23-.57,3.37-.81v4q-1.76-1.52-3.37-3.17Z" style="fill:#fff"/></svg>