<?xml version="1.0" encoding="utf-8"?>
<!-- Generator: Adobe Illustrator 26.0.3, SVG Export Plug-In . SVG Version: 6.00 Build 0)  -->
<svg version="1.1" id="Layer_1" xmlns="http://www.w3.org/2000/svg" xmlns:xlink="http://www.w3.org/1999/xlink" x="0px" y="0px"
	 viewBox="0 0 160 206" style="enable-background:new 0 0 160 206;" xml:space="preserve">
<style type="text/css">
	.st0{opacity:0.71;fill:#2B2B2B;enable-background:new    ;}
	.st1{fill:#FFFFFF;}
</style>
<path class="st0" d="M136.2,30.4h-32.8C103.4,17.5,92.9,7,80,7S56.7,17.5,56.7,30.4c0,0,0,0,0,0H23.8C14.5,30.4,7,37.9,7,47.2v135.1
	c0,9.3,7.5,16.8,16.8,16.8h112.4c9.3,0,16.8-7.5,16.8-16.8v-135C153,37.9,145.5,30.4,136.2,30.4z M80,20.1c5.1,0,9.2,4.1,9.2,9.2
	c0,5.1-4.1,9.2-9.2,9.2c-5.1,0-9.2-4.1-9.2-9.2C70.8,24.2,74.9,20.1,80,20.1C80,20.1,80,20.1,80,20.1z M117.1,67.5H42.9V53.3h74.2
	V67.5z"/>
<path class="st1" d="M80,7c12.9,0,23.4,10.5,23.4,23.4h32.8c9.3,0,16.8,7.5,16.8,16.8v135c0,9.3-7.5,16.8-16.8,16.8H23.8
	C14.5,199,7,191.5,7,182.2l0,0v-135c0-9.3,7.5-16.8,16.8-16.8l0,0h32.9C56.7,17.5,67.1,7,80,7 M80,38.5c5.1,0,9.2-4.1,9.2-9.2
	c0-5.1-4.1-9.2-9.2-9.2c-5.1,0-9.2,4.1-9.2,9.2C70.8,34.4,74.9,38.5,80,38.5C80,38.5,80,38.5,80,38.5 M42.9,67.5h74.2V53.3H42.9
	L42.9,67.5 M80,0C66,0,53.7,9.7,50.5,23.4H23.8C10.7,23.4,0,34,0,47.2v135.1C0,195.4,10.7,206,23.8,206h112.4
	c13.1,0,23.8-10.7,23.8-23.8v-135c0-13.1-10.7-23.8-23.8-23.8h-26.6C106.3,9.7,94.1,0,80,0z M80,31.5c-1.2,0-2.2-1-2.2-2.2
	c0-1.2,1-2.2,2.2-2.2c1.2,0,2.2,1,2.2,2.2C82.2,30.5,81.2,31.5,80,31.5L80,31.5z M49.9,60.3h60.2v0.2H49.9V60.3z"/>
</svg>
