<svg xmlns="http://www.w3.org/2000/svg" viewBox="0 0 160.03 206.02"><path d="M182,55.35H149.17a23.36,23.36,0,1,0-46.72,0H69.59a16.8,16.8,0,0,0-16.8,16.8V207.21A16.8,16.8,0,0,0,69.59,224H182a16.8,16.8,0,0,0,16.79-16.8V72.15A16.8,16.8,0,0,0,182,55.35ZM125.81,45.1a9.19,9.19,0,1,1-9.2,9.19A9.19,9.19,0,0,1,125.81,45.1Zm37.12,47.38H88.68V78.33h74.25Z" transform="translate(-45.79 -24.99)" style="fill:#2b2b2b;opacity:0.71"/><path d="M125.81,32a23.36,23.36,0,0,1,23.36,23.36H182a16.8,16.8,0,0,1,16.79,16.8V207.21A16.8,16.8,0,0,1,182,224H69.59a16.8,16.8,0,0,1-16.8-16.8V72.15a16.8,16.8,0,0,1,16.8-16.8h32.86A23.36,23.36,0,0,1,125.81,32m0,31.49a9.19,9.19,0,1,0-9.2-9.19,9.19,9.19,0,0,0,9.2,9.19m-37.13,29h74.25V78.33H88.68V92.48M125.81,25A30.41,30.41,0,0,0,96.26,48.35H69.59a23.83,23.83,0,0,0-23.8,23.8V207.21A23.83,23.83,0,0,0,69.59,231H182a23.82,23.82,0,0,0,23.79-23.8V72.15A23.82,23.82,0,0,0,182,48.35H155.35A30.41,30.41,0,0,0,125.81,25Zm0,31.49A2.19,2.19,0,1,1,128,54.29a2.2,2.2,0,0,1-2.19,2.19ZM95.68,85.33h60.25v.15H95.68v-.15Z" transform="translate(-45.79 -24.99)" style="fill:#fff"/></svg>