<?xml version="1.0" encoding="utf-8"?>
<!-- Generator: Adobe Illustrator 26.0.3, SVG Export Plug-In . SVG Version: 6.00 Build 0)  -->
<svg version="1.1" id="Layer_1"
	xmlns="http://www.w3.org/2000/svg"
	xmlns:xlink="http://www.w3.org/1999/xlink" x="0px" y="0px" viewBox="0 0 256 256" style="enable-background:new 0 0 256 256;" xml:space="preserve">
	<style type="text/css">
	.st0{opacity:0.71;fill:#2222E0;enable-background:new    ;}
	.st1{fill:#FFFFFF;}
	</style>
	<g>
		<path class="st0" d="M167.8,38.5h-40.5c0-15.9-12.9-28.8-28.8-28.8c-15.9,0-28.8,12.9-28.8,28.8H29.3c-11.4,0-20.7,9.3-20.7,20.7
		c0,0,0,0,0,0v166.4c0,11.4,9.3,20.7,20.7,20.7h138.5c11.4,0,20.7-9.3,20.7-20.7V59.3C188.6,47.8,179.3,38.5,167.8,38.5
		C167.9,38.5,167.9,38.5,167.8,38.5z M98.6,25.9c6.3,0,11.3,5.1,11.3,11.3c0,6.3-5.1,11.3-11.3,11.3c-6.2,0-11.3-5.1-11.3-11.3
		C87.2,30.9,92.3,25.9,98.6,25.9C98.6,25.9,98.6,25.9,98.6,25.9z M144.3,84.2H52.9V66.8h91.5L144.3,84.2z"/>
		<path class="st1" d="M98.6,9.7c15.9,0,28.8,12.9,28.8,28.8h40.5c11.4,0,20.7,9.3,20.7,20.7v166.4c0,11.4-9.3,20.7-20.7,20.7H29.3
		c-11.4,0-20.7-9.3-20.7-20.7l0,0V59.3c0-11.4,9.3-20.7,20.7-20.7l0,0h40.5C69.8,22.7,82.6,9.7,98.6,9.7C98.6,9.7,98.6,9.7,98.6,9.7
		 M98.6,48.5c6.3,0,11.3-5.1,11.3-11.3c0-6.3-5.1-11.3-11.3-11.3c-6.2,0-11.3,5.1-11.3,11.3C87.2,43.4,92.3,48.5,98.6,48.5
		C98.6,48.5,98.6,48.5,98.6,48.5L98.6,48.5 M52.8,84.3h91.5V66.8H52.9L52.8,84.3 M98.6,1.1C81.3,1.1,66.2,13,62.2,29.9H29.3
		C13.1,29.9,0,43,0,59.2v166.4c0,16.2,13.2,29.3,29.3,29.3h138.5c16.2,0,29.3-13.1,29.3-29.3V59.3c0-16.2-13.1-29.3-29.3-29.3H135
		C131,13,115.9,1.1,98.6,1.1z M98.6,39.9c-1.5,0-2.7-1.2-2.7-2.7c0-1.5,1.2-2.7,2.7-2.7c1.5,0,2.7,1.2,2.7,2.7
		C101.3,38.7,100.1,39.9,98.6,39.9C98.6,39.9,98.6,39.9,98.6,39.9z M61.5,75.4h74.2v0.2H61.5V75.4z"/>
		<path class="st1" d="M256,225.7c0,1.2-0.8,2.8-2.4,4.7c-13.7,16.3-32,24.5-54.7,24.5c-23.3,0-42.2-8-56.7-23.9
		c-14.1-15.3-21.1-34.7-21.1-58.2c0-22.7,6.9-42,20.7-57.8c14.4-16.6,32.7-24.9,55-24.9c24.2,0,43.1,7.4,56.9,22.3
		c1.3,1.1,2.1,2.7,2.2,4.4c0,1.4-2.6,6.7-7.8,15.8c-5.2,9.1-8.5,14.2-9.9,15.3c-0.6,0.6-1.4,0.9-2.2,0.9c-0.4,0-2.2-1.5-5.6-4.5
		c-3.6-3.3-7.6-6.1-11.9-8.4c-5.7-2.9-12-4.5-18.4-4.5c-11,0-19.8,4.1-26.3,12.3c-6.1,7.6-9.1,17-9.1,28.2c0,11.3,3,20.9,9.1,28.6
		c6.6,8.4,15.3,12.5,26.3,12.5c6.4,0,12.7-1.4,18.5-4.3c4.2-2.1,8.1-4.8,11.6-7.8c3.3-2.8,5.1-4.3,5.5-4.3c0.9,0.1,1.7,0.5,2.2,1.2
		c1.2,1.3,4.4,6,9.7,14C253.3,220.4,256,224.9,256,225.7z"/>
		<rect x="52.9" y="66.8" class="st1" width="91.5" height="17.4"/>
	</g>
</svg>
