<?xml version="1.0" encoding="utf-8"?>
<!-- Generator: Adobe Illustrator 26.3.1, SVG Export Plug-In . SVG Version: 6.00 Build 0)  -->
<svg version="1.1" id="Layer_1" xmlns="http://www.w3.org/2000/svg" xmlns:xlink="http://www.w3.org/1999/xlink" x="0px" y="0px"
	 viewBox="0 0 160 206" style="enable-background:new 0 0 160 206;" xml:space="preserve">
<style type="text/css">
	.st0{opacity:0.71;fill:#2B2B2B;enable-background:new    ;}
	.st1{fill:#FFFFFF;}
	.st2{fill:none;stroke:#FFFFFF;stroke-width:20;stroke-miterlimit:10;}
</style>
<g>
	<path class="st0" d="M55.7,59.6V53c0-5.4-4.4-9.8-9.8-9.8H12.3c-3.9,0-7.1,3.2-7.1,7.1v9.3v81.8c0,3.9,3.2,7.1,7.1,7.1h135.3
		c3.9,0,7.1-3.2,7.1-7.1V66.6c0-3.9-3.2-7.1-7.1-7.1H55.7z"/>
	<path class="st1" d="M45.8,43.2c5.4,0,9.8,4.4,9.8,9.8v6.5h92c3.9,0,7.1,3.2,7.1,7.1v74.7c0,3.9-3.2,7.1-7.1,7.1H12.3
		c-3.9,0-7.1-3.2-7.1-7.1V59.6v-9.3c0-3.9,3.2-7.1,7.1-7.1H45.8 M45.8,37.9H12.3C5.5,37.9,0,43.5,0,50.3v9.3v81.8
		c0,6.8,5.5,12.3,12.3,12.3h135.3c6.8,0,12.3-5.5,12.3-12.3V66.6c0-6.8-5.5-12.3-12.3-12.3H60.9V53C60.9,44.7,54.1,37.9,45.8,37.9
		L45.8,37.9z"/>
	<path class="st2" d="M39.9,168.1v-41.6c0-5.6,4.5-10.1,10.1-10.1H110c5.6,0,10.1,4.5,10.1,10.1v41.6"/>
</g>
</svg>
